%TF.GenerationSoftware,KiCad,Pcbnew,9.0.6*%
%TF.CreationDate,2026-05-22T12:10:30+05:30*%
%TF.ProjectId,electronic dice,656c6563-7472-46f6-9e69-632064696365,rev?*%
%TF.SameCoordinates,Original*%
%TF.FileFunction,Soldermask,Top*%
%TF.FilePolarity,Negative*%
%FSLAX46Y46*%
G04 Gerber Fmt 4.6, Leading zero omitted, Abs format (unit mm)*
G04 Created by KiCad (PCBNEW 9.0.6) date 2026-05-22 12:10:30*
%MOMM*%
%LPD*%
G01*
G04 APERTURE LIST*
G04 Aperture macros list*
%AMRoundRect*
0 Rectangle with rounded corners*
0 $1 Rounding radius*
0 $2 $3 $4 $5 $6 $7 $8 $9 X,Y pos of 4 corners*
0 Add a 4 corners polygon primitive as box body*
4,1,4,$2,$3,$4,$5,$6,$7,$8,$9,$2,$3,0*
0 Add four circle primitives for the rounded corners*
1,1,$1+$1,$2,$3*
1,1,$1+$1,$4,$5*
1,1,$1+$1,$6,$7*
1,1,$1+$1,$8,$9*
0 Add four rect primitives between the rounded corners*
20,1,$1+$1,$2,$3,$4,$5,0*
20,1,$1+$1,$4,$5,$6,$7,0*
20,1,$1+$1,$6,$7,$8,$9,0*
20,1,$1+$1,$8,$9,$2,$3,0*%
G04 Aperture macros list end*
%ADD10RoundRect,0.250000X1.050000X1.050000X-1.050000X1.050000X-1.050000X-1.050000X1.050000X-1.050000X0*%
%ADD11C,2.600000*%
%ADD12C,1.600000*%
%ADD13C,2.000000*%
%ADD14R,1.800000X1.800000*%
%ADD15C,1.800000*%
%ADD16C,2.100000*%
%ADD17R,1.600000X1.600000*%
%ADD18O,1.600000X1.600000*%
G04 APERTURE END LIST*
D10*
%TO.C,J1*%
X138945000Y-117692500D03*
D11*
X133865000Y-117692500D03*
%TD*%
D12*
%TO.C,R6*%
X143440000Y-119390000D03*
X143440000Y-111770000D03*
%TD*%
D13*
%TO.C,SW1*%
X135550000Y-102040000D03*
X129050000Y-102040000D03*
X135550000Y-97540000D03*
X129050000Y-97540000D03*
%TD*%
D14*
%TO.C,D6*%
X133595000Y-111230000D03*
D15*
X136135000Y-111230000D03*
%TD*%
D16*
%TO.C,REF\u002A\u002A*%
X128690000Y-120840000D03*
%TD*%
%TO.C,REF\u002A\u002A*%
X171880000Y-120620000D03*
%TD*%
%TO.C,REF\u002A\u002A*%
X170700000Y-77700000D03*
%TD*%
%TO.C,REF\u002A\u002A*%
X129290000Y-78300000D03*
%TD*%
D14*
%TO.C,D2*%
X163875000Y-82010000D03*
D15*
X166415000Y-82010000D03*
%TD*%
D14*
%TO.C,D1*%
X134020000Y-82020000D03*
D15*
X136560000Y-82020000D03*
%TD*%
D12*
%TO.C,R1*%
X138910000Y-87010000D03*
X131290000Y-87010000D03*
%TD*%
D15*
%TO.C,D5*%
X151135000Y-111230000D03*
D14*
X148595000Y-111230000D03*
%TD*%
D15*
%TO.C,D7*%
X166135000Y-111230000D03*
D14*
X163595000Y-111230000D03*
%TD*%
D12*
%TO.C,R7*%
X166890000Y-116190000D03*
X159270000Y-116190000D03*
%TD*%
%TO.C,R5*%
X154010000Y-117100000D03*
X146390000Y-117100000D03*
%TD*%
%TO.C,R4*%
X153500000Y-101310000D03*
X145880000Y-101310000D03*
%TD*%
%TO.C,R3*%
X153730000Y-87070000D03*
X146110000Y-87070000D03*
%TD*%
%TO.C,R2*%
X168880000Y-86990000D03*
X161260000Y-86990000D03*
%TD*%
D14*
%TO.C,D4*%
X148595000Y-96230000D03*
D15*
X151135000Y-96230000D03*
%TD*%
D14*
%TO.C,D3*%
X148630000Y-81990000D03*
D15*
X151170000Y-81990000D03*
%TD*%
D17*
%TO.C,A1*%
X130650000Y-90990000D03*
D18*
X133190000Y-90990000D03*
X135730000Y-90990000D03*
X138270000Y-90990000D03*
X140810000Y-90990000D03*
X143350000Y-90990000D03*
X145890000Y-90990000D03*
X148430000Y-90990000D03*
X150970000Y-90990000D03*
X153510000Y-90990000D03*
X156050000Y-90990000D03*
X158590000Y-90990000D03*
X161130000Y-90990000D03*
X163670000Y-90990000D03*
X166210000Y-90990000D03*
X166210000Y-106230000D03*
X163670000Y-106230000D03*
X161130000Y-106230000D03*
X158590000Y-106230000D03*
X156050000Y-106230000D03*
X153510000Y-106230000D03*
X150970000Y-106230000D03*
X148430000Y-106230000D03*
X145890000Y-106230000D03*
X143350000Y-106230000D03*
X140810000Y-106230000D03*
X138270000Y-106230000D03*
X135730000Y-106230000D03*
X133190000Y-106230000D03*
X130650000Y-106230000D03*
%TD*%
M02*
