M48
; DRILL file {KiCad 9.0.6} date 2026-05-22T12:10:39+0530
; FORMAT={-:-/ absolute / metric / decimal}
; #@! TF.CreationDate,2026-05-22T12:10:39+05:30
; #@! TF.GenerationSoftware,Kicad,Pcbnew,9.0.6
; #@! TF.FileFunction,Plated,1,2,PTH
FMAT,2
METRIC
; #@! TA.AperFunction,Plated,PTH,ComponentDrill
T1C0.800
; #@! TA.AperFunction,Plated,PTH,ComponentDrill
T2C0.900
; #@! TA.AperFunction,Plated,PTH,ComponentDrill
T3C1.000
; #@! TA.AperFunction,Plated,PTH,ComponentDrill
T4C1.100
; #@! TA.AperFunction,Plated,PTH,ComponentDrill
T5C1.300
%
G90
G05
T1
X131.29Y-87.01
X138.91Y-87.01
X143.44Y-111.77
X143.44Y-119.39
X145.88Y-101.31
X146.11Y-87.07
X146.39Y-117.1
X153.5Y-101.31
X153.73Y-87.07
X154.01Y-117.1
X159.27Y-116.19
X161.26Y-86.99
X166.89Y-116.19
X168.88Y-86.99
T2
X133.595Y-111.23
X134.02Y-82.02
X136.135Y-111.23
X136.56Y-82.02
X148.595Y-96.23
X148.595Y-111.23
X148.63Y-81.99
X151.135Y-96.23
X151.135Y-111.23
X151.17Y-81.99
X163.595Y-111.23
X163.875Y-82.01
X166.135Y-111.23
X166.415Y-82.01
T3
X130.65Y-90.99
X130.65Y-106.23
X133.19Y-90.99
X133.19Y-106.23
X135.73Y-90.99
X135.73Y-106.23
X138.27Y-90.99
X138.27Y-106.23
X140.81Y-90.99
X140.81Y-106.23
X143.35Y-90.99
X143.35Y-106.23
X145.89Y-90.99
X145.89Y-106.23
X148.43Y-90.99
X148.43Y-106.23
X150.97Y-90.99
X150.97Y-106.23
X153.51Y-90.99
X153.51Y-106.23
X156.05Y-90.99
X156.05Y-106.23
X158.59Y-90.99
X158.59Y-106.23
X161.13Y-90.99
X161.13Y-106.23
X163.67Y-90.99
X163.67Y-106.23
X166.21Y-90.99
X166.21Y-106.23
T4
X129.05Y-97.54
X129.05Y-102.04
X135.55Y-97.54
X135.55Y-102.04
T5
X133.865Y-117.692
X138.945Y-117.692
M30
