%TF.GenerationSoftware,KiCad,Pcbnew,9.0.6*%
%TF.CreationDate,2026-05-22T12:10:30+05:30*%
%TF.ProjectId,electronic dice,656c6563-7472-46f6-9e69-632064696365,rev?*%
%TF.SameCoordinates,Original*%
%TF.FileFunction,Legend,Top*%
%TF.FilePolarity,Positive*%
%FSLAX46Y46*%
G04 Gerber Fmt 4.6, Leading zero omitted, Abs format (unit mm)*
G04 Created by KiCad (PCBNEW 9.0.6) date 2026-05-22 12:10:30*
%MOMM*%
%LPD*%
G01*
G04 APERTURE LIST*
%ADD10C,0.150000*%
%ADD11C,0.120000*%
G04 APERTURE END LIST*
D10*
X146464819Y-113846666D02*
X145988628Y-114179999D01*
X146464819Y-114418094D02*
X145464819Y-114418094D01*
X145464819Y-114418094D02*
X145464819Y-114037142D01*
X145464819Y-114037142D02*
X145512438Y-113941904D01*
X145512438Y-113941904D02*
X145560057Y-113894285D01*
X145560057Y-113894285D02*
X145655295Y-113846666D01*
X145655295Y-113846666D02*
X145798152Y-113846666D01*
X145798152Y-113846666D02*
X145893390Y-113894285D01*
X145893390Y-113894285D02*
X145941009Y-113941904D01*
X145941009Y-113941904D02*
X145988628Y-114037142D01*
X145988628Y-114037142D02*
X145988628Y-114418094D01*
X145464819Y-112989523D02*
X145464819Y-113179999D01*
X145464819Y-113179999D02*
X145512438Y-113275237D01*
X145512438Y-113275237D02*
X145560057Y-113322856D01*
X145560057Y-113322856D02*
X145702914Y-113418094D01*
X145702914Y-113418094D02*
X145893390Y-113465713D01*
X145893390Y-113465713D02*
X146274342Y-113465713D01*
X146274342Y-113465713D02*
X146369580Y-113418094D01*
X146369580Y-113418094D02*
X146417200Y-113370475D01*
X146417200Y-113370475D02*
X146464819Y-113275237D01*
X146464819Y-113275237D02*
X146464819Y-113084761D01*
X146464819Y-113084761D02*
X146417200Y-112989523D01*
X146417200Y-112989523D02*
X146369580Y-112941904D01*
X146369580Y-112941904D02*
X146274342Y-112894285D01*
X146274342Y-112894285D02*
X146036247Y-112894285D01*
X146036247Y-112894285D02*
X145941009Y-112941904D01*
X145941009Y-112941904D02*
X145893390Y-112989523D01*
X145893390Y-112989523D02*
X145845771Y-113084761D01*
X145845771Y-113084761D02*
X145845771Y-113275237D01*
X145845771Y-113275237D02*
X145893390Y-113370475D01*
X145893390Y-113370475D02*
X145941009Y-113418094D01*
X145941009Y-113418094D02*
X146036247Y-113465713D01*
X130596667Y-94267200D02*
X130739524Y-94314819D01*
X130739524Y-94314819D02*
X130977619Y-94314819D01*
X130977619Y-94314819D02*
X131072857Y-94267200D01*
X131072857Y-94267200D02*
X131120476Y-94219580D01*
X131120476Y-94219580D02*
X131168095Y-94124342D01*
X131168095Y-94124342D02*
X131168095Y-94029104D01*
X131168095Y-94029104D02*
X131120476Y-93933866D01*
X131120476Y-93933866D02*
X131072857Y-93886247D01*
X131072857Y-93886247D02*
X130977619Y-93838628D01*
X130977619Y-93838628D02*
X130787143Y-93791009D01*
X130787143Y-93791009D02*
X130691905Y-93743390D01*
X130691905Y-93743390D02*
X130644286Y-93695771D01*
X130644286Y-93695771D02*
X130596667Y-93600533D01*
X130596667Y-93600533D02*
X130596667Y-93505295D01*
X130596667Y-93505295D02*
X130644286Y-93410057D01*
X130644286Y-93410057D02*
X130691905Y-93362438D01*
X130691905Y-93362438D02*
X130787143Y-93314819D01*
X130787143Y-93314819D02*
X131025238Y-93314819D01*
X131025238Y-93314819D02*
X131168095Y-93362438D01*
X131501429Y-93314819D02*
X131739524Y-94314819D01*
X131739524Y-94314819D02*
X131930000Y-93600533D01*
X131930000Y-93600533D02*
X132120476Y-94314819D01*
X132120476Y-94314819D02*
X132358572Y-93314819D01*
X133263333Y-94314819D02*
X132691905Y-94314819D01*
X132977619Y-94314819D02*
X132977619Y-93314819D01*
X132977619Y-93314819D02*
X132882381Y-93457676D01*
X132882381Y-93457676D02*
X132787143Y-93552914D01*
X132787143Y-93552914D02*
X132691905Y-93600533D01*
X142281905Y-109154819D02*
X142281905Y-108154819D01*
X142281905Y-108154819D02*
X142520000Y-108154819D01*
X142520000Y-108154819D02*
X142662857Y-108202438D01*
X142662857Y-108202438D02*
X142758095Y-108297676D01*
X142758095Y-108297676D02*
X142805714Y-108392914D01*
X142805714Y-108392914D02*
X142853333Y-108583390D01*
X142853333Y-108583390D02*
X142853333Y-108726247D01*
X142853333Y-108726247D02*
X142805714Y-108916723D01*
X142805714Y-108916723D02*
X142758095Y-109011961D01*
X142758095Y-109011961D02*
X142662857Y-109107200D01*
X142662857Y-109107200D02*
X142520000Y-109154819D01*
X142520000Y-109154819D02*
X142281905Y-109154819D01*
X143710476Y-108154819D02*
X143520000Y-108154819D01*
X143520000Y-108154819D02*
X143424762Y-108202438D01*
X143424762Y-108202438D02*
X143377143Y-108250057D01*
X143377143Y-108250057D02*
X143281905Y-108392914D01*
X143281905Y-108392914D02*
X143234286Y-108583390D01*
X143234286Y-108583390D02*
X143234286Y-108964342D01*
X143234286Y-108964342D02*
X143281905Y-109059580D01*
X143281905Y-109059580D02*
X143329524Y-109107200D01*
X143329524Y-109107200D02*
X143424762Y-109154819D01*
X143424762Y-109154819D02*
X143615238Y-109154819D01*
X143615238Y-109154819D02*
X143710476Y-109107200D01*
X143710476Y-109107200D02*
X143758095Y-109059580D01*
X143758095Y-109059580D02*
X143805714Y-108964342D01*
X143805714Y-108964342D02*
X143805714Y-108726247D01*
X143805714Y-108726247D02*
X143758095Y-108631009D01*
X143758095Y-108631009D02*
X143710476Y-108583390D01*
X143710476Y-108583390D02*
X143615238Y-108535771D01*
X143615238Y-108535771D02*
X143424762Y-108535771D01*
X143424762Y-108535771D02*
X143329524Y-108583390D01*
X143329524Y-108583390D02*
X143281905Y-108631009D01*
X143281905Y-108631009D02*
X143234286Y-108726247D01*
X127356666Y-118244819D02*
X127023333Y-117768628D01*
X126785238Y-118244819D02*
X126785238Y-117244819D01*
X126785238Y-117244819D02*
X127166190Y-117244819D01*
X127166190Y-117244819D02*
X127261428Y-117292438D01*
X127261428Y-117292438D02*
X127309047Y-117340057D01*
X127309047Y-117340057D02*
X127356666Y-117435295D01*
X127356666Y-117435295D02*
X127356666Y-117578152D01*
X127356666Y-117578152D02*
X127309047Y-117673390D01*
X127309047Y-117673390D02*
X127261428Y-117721009D01*
X127261428Y-117721009D02*
X127166190Y-117768628D01*
X127166190Y-117768628D02*
X126785238Y-117768628D01*
X127785238Y-117721009D02*
X128118571Y-117721009D01*
X128261428Y-118244819D02*
X127785238Y-118244819D01*
X127785238Y-118244819D02*
X127785238Y-117244819D01*
X127785238Y-117244819D02*
X128261428Y-117244819D01*
X129023333Y-117721009D02*
X128690000Y-117721009D01*
X128690000Y-118244819D02*
X128690000Y-117244819D01*
X128690000Y-117244819D02*
X129166190Y-117244819D01*
X129690000Y-117244819D02*
X129690000Y-117482914D01*
X129451905Y-117387676D02*
X129690000Y-117482914D01*
X129690000Y-117482914D02*
X129928095Y-117387676D01*
X129547143Y-117673390D02*
X129690000Y-117482914D01*
X129690000Y-117482914D02*
X129832857Y-117673390D01*
X130451905Y-117244819D02*
X130451905Y-117482914D01*
X130213810Y-117387676D02*
X130451905Y-117482914D01*
X130451905Y-117482914D02*
X130690000Y-117387676D01*
X130309048Y-117673390D02*
X130451905Y-117482914D01*
X130451905Y-117482914D02*
X130594762Y-117673390D01*
X170546666Y-118024819D02*
X170213333Y-117548628D01*
X169975238Y-118024819D02*
X169975238Y-117024819D01*
X169975238Y-117024819D02*
X170356190Y-117024819D01*
X170356190Y-117024819D02*
X170451428Y-117072438D01*
X170451428Y-117072438D02*
X170499047Y-117120057D01*
X170499047Y-117120057D02*
X170546666Y-117215295D01*
X170546666Y-117215295D02*
X170546666Y-117358152D01*
X170546666Y-117358152D02*
X170499047Y-117453390D01*
X170499047Y-117453390D02*
X170451428Y-117501009D01*
X170451428Y-117501009D02*
X170356190Y-117548628D01*
X170356190Y-117548628D02*
X169975238Y-117548628D01*
X170975238Y-117501009D02*
X171308571Y-117501009D01*
X171451428Y-118024819D02*
X170975238Y-118024819D01*
X170975238Y-118024819D02*
X170975238Y-117024819D01*
X170975238Y-117024819D02*
X171451428Y-117024819D01*
X172213333Y-117501009D02*
X171880000Y-117501009D01*
X171880000Y-118024819D02*
X171880000Y-117024819D01*
X171880000Y-117024819D02*
X172356190Y-117024819D01*
X172880000Y-117024819D02*
X172880000Y-117262914D01*
X172641905Y-117167676D02*
X172880000Y-117262914D01*
X172880000Y-117262914D02*
X173118095Y-117167676D01*
X172737143Y-117453390D02*
X172880000Y-117262914D01*
X172880000Y-117262914D02*
X173022857Y-117453390D01*
X173641905Y-117024819D02*
X173641905Y-117262914D01*
X173403810Y-117167676D02*
X173641905Y-117262914D01*
X173641905Y-117262914D02*
X173880000Y-117167676D01*
X173499048Y-117453390D02*
X173641905Y-117262914D01*
X173641905Y-117262914D02*
X173784762Y-117453390D01*
X165536666Y-76214819D02*
X165203333Y-75738628D01*
X164965238Y-76214819D02*
X164965238Y-75214819D01*
X164965238Y-75214819D02*
X165346190Y-75214819D01*
X165346190Y-75214819D02*
X165441428Y-75262438D01*
X165441428Y-75262438D02*
X165489047Y-75310057D01*
X165489047Y-75310057D02*
X165536666Y-75405295D01*
X165536666Y-75405295D02*
X165536666Y-75548152D01*
X165536666Y-75548152D02*
X165489047Y-75643390D01*
X165489047Y-75643390D02*
X165441428Y-75691009D01*
X165441428Y-75691009D02*
X165346190Y-75738628D01*
X165346190Y-75738628D02*
X164965238Y-75738628D01*
X165965238Y-75691009D02*
X166298571Y-75691009D01*
X166441428Y-76214819D02*
X165965238Y-76214819D01*
X165965238Y-76214819D02*
X165965238Y-75214819D01*
X165965238Y-75214819D02*
X166441428Y-75214819D01*
X167203333Y-75691009D02*
X166870000Y-75691009D01*
X166870000Y-76214819D02*
X166870000Y-75214819D01*
X166870000Y-75214819D02*
X167346190Y-75214819D01*
X167870000Y-75214819D02*
X167870000Y-75452914D01*
X167631905Y-75357676D02*
X167870000Y-75452914D01*
X167870000Y-75452914D02*
X168108095Y-75357676D01*
X167727143Y-75643390D02*
X167870000Y-75452914D01*
X167870000Y-75452914D02*
X168012857Y-75643390D01*
X168631905Y-75214819D02*
X168631905Y-75452914D01*
X168393810Y-75357676D02*
X168631905Y-75452914D01*
X168631905Y-75452914D02*
X168870000Y-75357676D01*
X168489048Y-75643390D02*
X168631905Y-75452914D01*
X168631905Y-75452914D02*
X168774762Y-75643390D01*
X129336666Y-75854819D02*
X129003333Y-75378628D01*
X128765238Y-75854819D02*
X128765238Y-74854819D01*
X128765238Y-74854819D02*
X129146190Y-74854819D01*
X129146190Y-74854819D02*
X129241428Y-74902438D01*
X129241428Y-74902438D02*
X129289047Y-74950057D01*
X129289047Y-74950057D02*
X129336666Y-75045295D01*
X129336666Y-75045295D02*
X129336666Y-75188152D01*
X129336666Y-75188152D02*
X129289047Y-75283390D01*
X129289047Y-75283390D02*
X129241428Y-75331009D01*
X129241428Y-75331009D02*
X129146190Y-75378628D01*
X129146190Y-75378628D02*
X128765238Y-75378628D01*
X129765238Y-75331009D02*
X130098571Y-75331009D01*
X130241428Y-75854819D02*
X129765238Y-75854819D01*
X129765238Y-75854819D02*
X129765238Y-74854819D01*
X129765238Y-74854819D02*
X130241428Y-74854819D01*
X131003333Y-75331009D02*
X130670000Y-75331009D01*
X130670000Y-75854819D02*
X130670000Y-74854819D01*
X130670000Y-74854819D02*
X131146190Y-74854819D01*
X131670000Y-74854819D02*
X131670000Y-75092914D01*
X131431905Y-74997676D02*
X131670000Y-75092914D01*
X131670000Y-75092914D02*
X131908095Y-74997676D01*
X131527143Y-75283390D02*
X131670000Y-75092914D01*
X131670000Y-75092914D02*
X131812857Y-75283390D01*
X132431905Y-74854819D02*
X132431905Y-75092914D01*
X132193810Y-74997676D02*
X132431905Y-75092914D01*
X132431905Y-75092914D02*
X132670000Y-74997676D01*
X132289048Y-75283390D02*
X132431905Y-75092914D01*
X132431905Y-75092914D02*
X132574762Y-75283390D01*
X164406905Y-78504819D02*
X164406905Y-77504819D01*
X164406905Y-77504819D02*
X164645000Y-77504819D01*
X164645000Y-77504819D02*
X164787857Y-77552438D01*
X164787857Y-77552438D02*
X164883095Y-77647676D01*
X164883095Y-77647676D02*
X164930714Y-77742914D01*
X164930714Y-77742914D02*
X164978333Y-77933390D01*
X164978333Y-77933390D02*
X164978333Y-78076247D01*
X164978333Y-78076247D02*
X164930714Y-78266723D01*
X164930714Y-78266723D02*
X164883095Y-78361961D01*
X164883095Y-78361961D02*
X164787857Y-78457200D01*
X164787857Y-78457200D02*
X164645000Y-78504819D01*
X164645000Y-78504819D02*
X164406905Y-78504819D01*
X165359286Y-77600057D02*
X165406905Y-77552438D01*
X165406905Y-77552438D02*
X165502143Y-77504819D01*
X165502143Y-77504819D02*
X165740238Y-77504819D01*
X165740238Y-77504819D02*
X165835476Y-77552438D01*
X165835476Y-77552438D02*
X165883095Y-77600057D01*
X165883095Y-77600057D02*
X165930714Y-77695295D01*
X165930714Y-77695295D02*
X165930714Y-77790533D01*
X165930714Y-77790533D02*
X165883095Y-77933390D01*
X165883095Y-77933390D02*
X165311667Y-78504819D01*
X165311667Y-78504819D02*
X165930714Y-78504819D01*
X134551905Y-78514819D02*
X134551905Y-77514819D01*
X134551905Y-77514819D02*
X134790000Y-77514819D01*
X134790000Y-77514819D02*
X134932857Y-77562438D01*
X134932857Y-77562438D02*
X135028095Y-77657676D01*
X135028095Y-77657676D02*
X135075714Y-77752914D01*
X135075714Y-77752914D02*
X135123333Y-77943390D01*
X135123333Y-77943390D02*
X135123333Y-78086247D01*
X135123333Y-78086247D02*
X135075714Y-78276723D01*
X135075714Y-78276723D02*
X135028095Y-78371961D01*
X135028095Y-78371961D02*
X134932857Y-78467200D01*
X134932857Y-78467200D02*
X134790000Y-78514819D01*
X134790000Y-78514819D02*
X134551905Y-78514819D01*
X136075714Y-78514819D02*
X135504286Y-78514819D01*
X135790000Y-78514819D02*
X135790000Y-77514819D01*
X135790000Y-77514819D02*
X135694762Y-77657676D01*
X135694762Y-77657676D02*
X135599524Y-77752914D01*
X135599524Y-77752914D02*
X135504286Y-77800533D01*
X134933333Y-89834819D02*
X134600000Y-89358628D01*
X134361905Y-89834819D02*
X134361905Y-88834819D01*
X134361905Y-88834819D02*
X134742857Y-88834819D01*
X134742857Y-88834819D02*
X134838095Y-88882438D01*
X134838095Y-88882438D02*
X134885714Y-88930057D01*
X134885714Y-88930057D02*
X134933333Y-89025295D01*
X134933333Y-89025295D02*
X134933333Y-89168152D01*
X134933333Y-89168152D02*
X134885714Y-89263390D01*
X134885714Y-89263390D02*
X134838095Y-89311009D01*
X134838095Y-89311009D02*
X134742857Y-89358628D01*
X134742857Y-89358628D02*
X134361905Y-89358628D01*
X135885714Y-89834819D02*
X135314286Y-89834819D01*
X135600000Y-89834819D02*
X135600000Y-88834819D01*
X135600000Y-88834819D02*
X135504762Y-88977676D01*
X135504762Y-88977676D02*
X135409524Y-89072914D01*
X135409524Y-89072914D02*
X135314286Y-89120533D01*
X154661905Y-109304819D02*
X154661905Y-108304819D01*
X154661905Y-108304819D02*
X154900000Y-108304819D01*
X154900000Y-108304819D02*
X155042857Y-108352438D01*
X155042857Y-108352438D02*
X155138095Y-108447676D01*
X155138095Y-108447676D02*
X155185714Y-108542914D01*
X155185714Y-108542914D02*
X155233333Y-108733390D01*
X155233333Y-108733390D02*
X155233333Y-108876247D01*
X155233333Y-108876247D02*
X155185714Y-109066723D01*
X155185714Y-109066723D02*
X155138095Y-109161961D01*
X155138095Y-109161961D02*
X155042857Y-109257200D01*
X155042857Y-109257200D02*
X154900000Y-109304819D01*
X154900000Y-109304819D02*
X154661905Y-109304819D01*
X156138095Y-108304819D02*
X155661905Y-108304819D01*
X155661905Y-108304819D02*
X155614286Y-108781009D01*
X155614286Y-108781009D02*
X155661905Y-108733390D01*
X155661905Y-108733390D02*
X155757143Y-108685771D01*
X155757143Y-108685771D02*
X155995238Y-108685771D01*
X155995238Y-108685771D02*
X156090476Y-108733390D01*
X156090476Y-108733390D02*
X156138095Y-108781009D01*
X156138095Y-108781009D02*
X156185714Y-108876247D01*
X156185714Y-108876247D02*
X156185714Y-109114342D01*
X156185714Y-109114342D02*
X156138095Y-109209580D01*
X156138095Y-109209580D02*
X156090476Y-109257200D01*
X156090476Y-109257200D02*
X155995238Y-109304819D01*
X155995238Y-109304819D02*
X155757143Y-109304819D01*
X155757143Y-109304819D02*
X155661905Y-109257200D01*
X155661905Y-109257200D02*
X155614286Y-109209580D01*
X158641905Y-109124819D02*
X158641905Y-108124819D01*
X158641905Y-108124819D02*
X158880000Y-108124819D01*
X158880000Y-108124819D02*
X159022857Y-108172438D01*
X159022857Y-108172438D02*
X159118095Y-108267676D01*
X159118095Y-108267676D02*
X159165714Y-108362914D01*
X159165714Y-108362914D02*
X159213333Y-108553390D01*
X159213333Y-108553390D02*
X159213333Y-108696247D01*
X159213333Y-108696247D02*
X159165714Y-108886723D01*
X159165714Y-108886723D02*
X159118095Y-108981961D01*
X159118095Y-108981961D02*
X159022857Y-109077200D01*
X159022857Y-109077200D02*
X158880000Y-109124819D01*
X158880000Y-109124819D02*
X158641905Y-109124819D01*
X159546667Y-108124819D02*
X160213333Y-108124819D01*
X160213333Y-108124819D02*
X159784762Y-109124819D01*
X162913333Y-119014819D02*
X162580000Y-118538628D01*
X162341905Y-119014819D02*
X162341905Y-118014819D01*
X162341905Y-118014819D02*
X162722857Y-118014819D01*
X162722857Y-118014819D02*
X162818095Y-118062438D01*
X162818095Y-118062438D02*
X162865714Y-118110057D01*
X162865714Y-118110057D02*
X162913333Y-118205295D01*
X162913333Y-118205295D02*
X162913333Y-118348152D01*
X162913333Y-118348152D02*
X162865714Y-118443390D01*
X162865714Y-118443390D02*
X162818095Y-118491009D01*
X162818095Y-118491009D02*
X162722857Y-118538628D01*
X162722857Y-118538628D02*
X162341905Y-118538628D01*
X163246667Y-118014819D02*
X163913333Y-118014819D01*
X163913333Y-118014819D02*
X163484762Y-119014819D01*
X150033333Y-119924819D02*
X149700000Y-119448628D01*
X149461905Y-119924819D02*
X149461905Y-118924819D01*
X149461905Y-118924819D02*
X149842857Y-118924819D01*
X149842857Y-118924819D02*
X149938095Y-118972438D01*
X149938095Y-118972438D02*
X149985714Y-119020057D01*
X149985714Y-119020057D02*
X150033333Y-119115295D01*
X150033333Y-119115295D02*
X150033333Y-119258152D01*
X150033333Y-119258152D02*
X149985714Y-119353390D01*
X149985714Y-119353390D02*
X149938095Y-119401009D01*
X149938095Y-119401009D02*
X149842857Y-119448628D01*
X149842857Y-119448628D02*
X149461905Y-119448628D01*
X150938095Y-118924819D02*
X150461905Y-118924819D01*
X150461905Y-118924819D02*
X150414286Y-119401009D01*
X150414286Y-119401009D02*
X150461905Y-119353390D01*
X150461905Y-119353390D02*
X150557143Y-119305771D01*
X150557143Y-119305771D02*
X150795238Y-119305771D01*
X150795238Y-119305771D02*
X150890476Y-119353390D01*
X150890476Y-119353390D02*
X150938095Y-119401009D01*
X150938095Y-119401009D02*
X150985714Y-119496247D01*
X150985714Y-119496247D02*
X150985714Y-119734342D01*
X150985714Y-119734342D02*
X150938095Y-119829580D01*
X150938095Y-119829580D02*
X150890476Y-119877200D01*
X150890476Y-119877200D02*
X150795238Y-119924819D01*
X150795238Y-119924819D02*
X150557143Y-119924819D01*
X150557143Y-119924819D02*
X150461905Y-119877200D01*
X150461905Y-119877200D02*
X150414286Y-119829580D01*
X149523333Y-104134819D02*
X149190000Y-103658628D01*
X148951905Y-104134819D02*
X148951905Y-103134819D01*
X148951905Y-103134819D02*
X149332857Y-103134819D01*
X149332857Y-103134819D02*
X149428095Y-103182438D01*
X149428095Y-103182438D02*
X149475714Y-103230057D01*
X149475714Y-103230057D02*
X149523333Y-103325295D01*
X149523333Y-103325295D02*
X149523333Y-103468152D01*
X149523333Y-103468152D02*
X149475714Y-103563390D01*
X149475714Y-103563390D02*
X149428095Y-103611009D01*
X149428095Y-103611009D02*
X149332857Y-103658628D01*
X149332857Y-103658628D02*
X148951905Y-103658628D01*
X150380476Y-103468152D02*
X150380476Y-104134819D01*
X150142381Y-103087200D02*
X149904286Y-103801485D01*
X149904286Y-103801485D02*
X150523333Y-103801485D01*
X149753333Y-89894819D02*
X149420000Y-89418628D01*
X149181905Y-89894819D02*
X149181905Y-88894819D01*
X149181905Y-88894819D02*
X149562857Y-88894819D01*
X149562857Y-88894819D02*
X149658095Y-88942438D01*
X149658095Y-88942438D02*
X149705714Y-88990057D01*
X149705714Y-88990057D02*
X149753333Y-89085295D01*
X149753333Y-89085295D02*
X149753333Y-89228152D01*
X149753333Y-89228152D02*
X149705714Y-89323390D01*
X149705714Y-89323390D02*
X149658095Y-89371009D01*
X149658095Y-89371009D02*
X149562857Y-89418628D01*
X149562857Y-89418628D02*
X149181905Y-89418628D01*
X150086667Y-88894819D02*
X150705714Y-88894819D01*
X150705714Y-88894819D02*
X150372381Y-89275771D01*
X150372381Y-89275771D02*
X150515238Y-89275771D01*
X150515238Y-89275771D02*
X150610476Y-89323390D01*
X150610476Y-89323390D02*
X150658095Y-89371009D01*
X150658095Y-89371009D02*
X150705714Y-89466247D01*
X150705714Y-89466247D02*
X150705714Y-89704342D01*
X150705714Y-89704342D02*
X150658095Y-89799580D01*
X150658095Y-89799580D02*
X150610476Y-89847200D01*
X150610476Y-89847200D02*
X150515238Y-89894819D01*
X150515238Y-89894819D02*
X150229524Y-89894819D01*
X150229524Y-89894819D02*
X150134286Y-89847200D01*
X150134286Y-89847200D02*
X150086667Y-89799580D01*
X164903333Y-89814819D02*
X164570000Y-89338628D01*
X164331905Y-89814819D02*
X164331905Y-88814819D01*
X164331905Y-88814819D02*
X164712857Y-88814819D01*
X164712857Y-88814819D02*
X164808095Y-88862438D01*
X164808095Y-88862438D02*
X164855714Y-88910057D01*
X164855714Y-88910057D02*
X164903333Y-89005295D01*
X164903333Y-89005295D02*
X164903333Y-89148152D01*
X164903333Y-89148152D02*
X164855714Y-89243390D01*
X164855714Y-89243390D02*
X164808095Y-89291009D01*
X164808095Y-89291009D02*
X164712857Y-89338628D01*
X164712857Y-89338628D02*
X164331905Y-89338628D01*
X165284286Y-88910057D02*
X165331905Y-88862438D01*
X165331905Y-88862438D02*
X165427143Y-88814819D01*
X165427143Y-88814819D02*
X165665238Y-88814819D01*
X165665238Y-88814819D02*
X165760476Y-88862438D01*
X165760476Y-88862438D02*
X165808095Y-88910057D01*
X165808095Y-88910057D02*
X165855714Y-89005295D01*
X165855714Y-89005295D02*
X165855714Y-89100533D01*
X165855714Y-89100533D02*
X165808095Y-89243390D01*
X165808095Y-89243390D02*
X165236667Y-89814819D01*
X165236667Y-89814819D02*
X165855714Y-89814819D01*
X149126905Y-92724819D02*
X149126905Y-91724819D01*
X149126905Y-91724819D02*
X149365000Y-91724819D01*
X149365000Y-91724819D02*
X149507857Y-91772438D01*
X149507857Y-91772438D02*
X149603095Y-91867676D01*
X149603095Y-91867676D02*
X149650714Y-91962914D01*
X149650714Y-91962914D02*
X149698333Y-92153390D01*
X149698333Y-92153390D02*
X149698333Y-92296247D01*
X149698333Y-92296247D02*
X149650714Y-92486723D01*
X149650714Y-92486723D02*
X149603095Y-92581961D01*
X149603095Y-92581961D02*
X149507857Y-92677200D01*
X149507857Y-92677200D02*
X149365000Y-92724819D01*
X149365000Y-92724819D02*
X149126905Y-92724819D01*
X150555476Y-92058152D02*
X150555476Y-92724819D01*
X150317381Y-91677200D02*
X150079286Y-92391485D01*
X150079286Y-92391485D02*
X150698333Y-92391485D01*
X149161905Y-78484819D02*
X149161905Y-77484819D01*
X149161905Y-77484819D02*
X149400000Y-77484819D01*
X149400000Y-77484819D02*
X149542857Y-77532438D01*
X149542857Y-77532438D02*
X149638095Y-77627676D01*
X149638095Y-77627676D02*
X149685714Y-77722914D01*
X149685714Y-77722914D02*
X149733333Y-77913390D01*
X149733333Y-77913390D02*
X149733333Y-78056247D01*
X149733333Y-78056247D02*
X149685714Y-78246723D01*
X149685714Y-78246723D02*
X149638095Y-78341961D01*
X149638095Y-78341961D02*
X149542857Y-78437200D01*
X149542857Y-78437200D02*
X149400000Y-78484819D01*
X149400000Y-78484819D02*
X149161905Y-78484819D01*
X150066667Y-77484819D02*
X150685714Y-77484819D01*
X150685714Y-77484819D02*
X150352381Y-77865771D01*
X150352381Y-77865771D02*
X150495238Y-77865771D01*
X150495238Y-77865771D02*
X150590476Y-77913390D01*
X150590476Y-77913390D02*
X150638095Y-77961009D01*
X150638095Y-77961009D02*
X150685714Y-78056247D01*
X150685714Y-78056247D02*
X150685714Y-78294342D01*
X150685714Y-78294342D02*
X150638095Y-78389580D01*
X150638095Y-78389580D02*
X150590476Y-78437200D01*
X150590476Y-78437200D02*
X150495238Y-78484819D01*
X150495238Y-78484819D02*
X150209524Y-78484819D01*
X150209524Y-78484819D02*
X150114286Y-78437200D01*
X150114286Y-78437200D02*
X150066667Y-78389580D01*
D11*
%TO.C,R6*%
X142070000Y-118850000D02*
X142400000Y-118850000D01*
X144810000Y-118850000D02*
X144480000Y-118850000D01*
X142070000Y-112310000D02*
X142070000Y-118850000D01*
X142400000Y-112310000D02*
X142070000Y-112310000D01*
X144480000Y-112310000D02*
X144810000Y-112310000D01*
X144810000Y-112310000D02*
X144810000Y-118850000D01*
%TO.C,SW1*%
X135800000Y-100540000D02*
X135800000Y-99040000D01*
X134550000Y-96540000D02*
X130050000Y-96540000D01*
X130050000Y-103040000D02*
X134550000Y-103040000D01*
X128800000Y-99040000D02*
X128800000Y-100540000D01*
%TO.C,D6*%
X132305000Y-109685000D02*
X132305000Y-112775000D01*
X132305000Y-109685170D02*
G75*
G02*
X137855000Y-111230000I2560000J-1544830D01*
G01*
X137855000Y-111230000D02*
G75*
G02*
X132305000Y-112774830I-2990000J0D01*
G01*
X137365000Y-111230000D02*
G75*
G02*
X132365000Y-111230000I-2500000J0D01*
G01*
X132365000Y-111230000D02*
G75*
G02*
X137365000Y-111230000I2500000J0D01*
G01*
%TO.C,D2*%
X162585000Y-80465000D02*
X162585000Y-83555000D01*
X162585000Y-80465170D02*
G75*
G02*
X168135000Y-82010000I2560000J-1544830D01*
G01*
X168135000Y-82010000D02*
G75*
G02*
X162585000Y-83554830I-2990000J0D01*
G01*
X167645000Y-82010000D02*
G75*
G02*
X162645000Y-82010000I-2500000J0D01*
G01*
X162645000Y-82010000D02*
G75*
G02*
X167645000Y-82010000I2500000J0D01*
G01*
%TO.C,D1*%
X132730000Y-80475000D02*
X132730000Y-83565000D01*
X132730000Y-80475170D02*
G75*
G02*
X138280000Y-82020000I2560000J-1544830D01*
G01*
X138280000Y-82020000D02*
G75*
G02*
X132730000Y-83564830I-2990000J0D01*
G01*
X137790000Y-82020000D02*
G75*
G02*
X132790000Y-82020000I-2500000J0D01*
G01*
X132790000Y-82020000D02*
G75*
G02*
X137790000Y-82020000I2500000J0D01*
G01*
%TO.C,R1*%
X138370000Y-88380000D02*
X131830000Y-88380000D01*
X138370000Y-88050000D02*
X138370000Y-88380000D01*
X138370000Y-85970000D02*
X138370000Y-85640000D01*
X138370000Y-85640000D02*
X131830000Y-85640000D01*
X131830000Y-88380000D02*
X131830000Y-88050000D01*
X131830000Y-85640000D02*
X131830000Y-85970000D01*
%TO.C,D5*%
X152365000Y-111230000D02*
G75*
G02*
X147365000Y-111230000I-2500000J0D01*
G01*
X147365000Y-111230000D02*
G75*
G02*
X152365000Y-111230000I2500000J0D01*
G01*
X152855000Y-111230000D02*
G75*
G02*
X147305000Y-112774830I-2990000J0D01*
G01*
X147305000Y-109685170D02*
G75*
G02*
X152855000Y-111230000I2560000J-1544830D01*
G01*
X147305000Y-109685000D02*
X147305000Y-112775000D01*
%TO.C,D7*%
X167365000Y-111230000D02*
G75*
G02*
X162365000Y-111230000I-2500000J0D01*
G01*
X162365000Y-111230000D02*
G75*
G02*
X167365000Y-111230000I2500000J0D01*
G01*
X167855000Y-111230000D02*
G75*
G02*
X162305000Y-112774830I-2990000J0D01*
G01*
X162305000Y-109685170D02*
G75*
G02*
X167855000Y-111230000I2560000J-1544830D01*
G01*
X162305000Y-109685000D02*
X162305000Y-112775000D01*
%TO.C,R7*%
X166350000Y-117560000D02*
X159810000Y-117560000D01*
X166350000Y-117230000D02*
X166350000Y-117560000D01*
X166350000Y-115150000D02*
X166350000Y-114820000D01*
X166350000Y-114820000D02*
X159810000Y-114820000D01*
X159810000Y-117560000D02*
X159810000Y-117230000D01*
X159810000Y-114820000D02*
X159810000Y-115150000D01*
%TO.C,R5*%
X153470000Y-118470000D02*
X146930000Y-118470000D01*
X153470000Y-118140000D02*
X153470000Y-118470000D01*
X153470000Y-116060000D02*
X153470000Y-115730000D01*
X153470000Y-115730000D02*
X146930000Y-115730000D01*
X146930000Y-118470000D02*
X146930000Y-118140000D01*
X146930000Y-115730000D02*
X146930000Y-116060000D01*
%TO.C,R4*%
X152960000Y-102680000D02*
X146420000Y-102680000D01*
X152960000Y-102350000D02*
X152960000Y-102680000D01*
X152960000Y-100270000D02*
X152960000Y-99940000D01*
X152960000Y-99940000D02*
X146420000Y-99940000D01*
X146420000Y-102680000D02*
X146420000Y-102350000D01*
X146420000Y-99940000D02*
X146420000Y-100270000D01*
%TO.C,R3*%
X153190000Y-88440000D02*
X146650000Y-88440000D01*
X153190000Y-88110000D02*
X153190000Y-88440000D01*
X153190000Y-86030000D02*
X153190000Y-85700000D01*
X153190000Y-85700000D02*
X146650000Y-85700000D01*
X146650000Y-88440000D02*
X146650000Y-88110000D01*
X146650000Y-85700000D02*
X146650000Y-86030000D01*
%TO.C,R2*%
X168340000Y-88360000D02*
X161800000Y-88360000D01*
X168340000Y-88030000D02*
X168340000Y-88360000D01*
X168340000Y-85950000D02*
X168340000Y-85620000D01*
X168340000Y-85620000D02*
X161800000Y-85620000D01*
X161800000Y-88360000D02*
X161800000Y-88030000D01*
X161800000Y-85620000D02*
X161800000Y-85950000D01*
%TO.C,D4*%
X147305000Y-94685000D02*
X147305000Y-97775000D01*
X147305000Y-94685170D02*
G75*
G02*
X152855000Y-96230000I2560000J-1544830D01*
G01*
X152855000Y-96230000D02*
G75*
G02*
X147305000Y-97774830I-2990000J0D01*
G01*
X152365000Y-96230000D02*
G75*
G02*
X147365000Y-96230000I-2500000J0D01*
G01*
X147365000Y-96230000D02*
G75*
G02*
X152365000Y-96230000I2500000J0D01*
G01*
%TO.C,D3*%
X147340000Y-80445000D02*
X147340000Y-83535000D01*
X147340000Y-80445170D02*
G75*
G02*
X152890000Y-81990000I2560000J-1544830D01*
G01*
X152890000Y-81990000D02*
G75*
G02*
X147340000Y-83534830I-2990000J0D01*
G01*
X152400000Y-81990000D02*
G75*
G02*
X147400000Y-81990000I-2500000J0D01*
G01*
X147400000Y-81990000D02*
G75*
G02*
X152400000Y-81990000I2500000J0D01*
G01*
%TD*%
M02*
