%TF.GenerationSoftware,KiCad,Pcbnew,9.0.6*%
%TF.CreationDate,2026-05-22T12:10:30+05:30*%
%TF.ProjectId,electronic dice,656c6563-7472-46f6-9e69-632064696365,rev?*%
%TF.SameCoordinates,Original*%
%TF.FileFunction,Copper,L1,Top*%
%TF.FilePolarity,Positive*%
%FSLAX46Y46*%
G04 Gerber Fmt 4.6, Leading zero omitted, Abs format (unit mm)*
G04 Created by KiCad (PCBNEW 9.0.6) date 2026-05-22 12:10:30*
%MOMM*%
%LPD*%
G01*
G04 APERTURE LIST*
G04 Aperture macros list*
%AMRoundRect*
0 Rectangle with rounded corners*
0 $1 Rounding radius*
0 $2 $3 $4 $5 $6 $7 $8 $9 X,Y pos of 4 corners*
0 Add a 4 corners polygon primitive as box body*
4,1,4,$2,$3,$4,$5,$6,$7,$8,$9,$2,$3,0*
0 Add four circle primitives for the rounded corners*
1,1,$1+$1,$2,$3*
1,1,$1+$1,$4,$5*
1,1,$1+$1,$6,$7*
1,1,$1+$1,$8,$9*
0 Add four rect primitives between the rounded corners*
20,1,$1+$1,$2,$3,$4,$5,0*
20,1,$1+$1,$4,$5,$6,$7,0*
20,1,$1+$1,$6,$7,$8,$9,0*
20,1,$1+$1,$8,$9,$2,$3,0*%
G04 Aperture macros list end*
%TA.AperFunction,ComponentPad*%
%ADD10RoundRect,0.250000X1.050000X1.050000X-1.050000X1.050000X-1.050000X-1.050000X1.050000X-1.050000X0*%
%TD*%
%TA.AperFunction,ComponentPad*%
%ADD11C,2.600000*%
%TD*%
%TA.AperFunction,ComponentPad*%
%ADD12C,1.600000*%
%TD*%
%TA.AperFunction,ComponentPad*%
%ADD13C,2.000000*%
%TD*%
%TA.AperFunction,ComponentPad*%
%ADD14R,1.800000X1.800000*%
%TD*%
%TA.AperFunction,ComponentPad*%
%ADD15C,1.800000*%
%TD*%
%TA.AperFunction,ComponentPad*%
%ADD16R,1.600000X1.600000*%
%TD*%
%TA.AperFunction,ComponentPad*%
%ADD17O,1.600000X1.600000*%
%TD*%
%TA.AperFunction,Conductor*%
%ADD18C,0.500000*%
%TD*%
%TA.AperFunction,Conductor*%
%ADD19C,0.300000*%
%TD*%
G04 APERTURE END LIST*
D10*
%TO.P,J1,1,Pin_1*%
%TO.N,Net-(A1-+5V)*%
X138945000Y-117692500D03*
D11*
%TO.P,J1,2,Pin_2*%
%TO.N,Net-(J1-Pin_2)*%
X133865000Y-117692500D03*
%TD*%
D12*
%TO.P,R6,2*%
%TO.N,Net-(A1-D7)*%
X143440000Y-119390000D03*
%TO.P,R6,1*%
%TO.N,Net-(D6-A)*%
X143440000Y-111770000D03*
%TD*%
D13*
%TO.P,SW1,2,2*%
%TO.N,Net-(J1-Pin_2)*%
X135550000Y-102040000D03*
X129050000Y-102040000D03*
%TO.P,SW1,1,1*%
%TO.N,Net-(A1-D9)*%
X135550000Y-97540000D03*
X129050000Y-97540000D03*
%TD*%
D14*
%TO.P,D6,1,K*%
%TO.N,Net-(A1-D9)*%
X133595000Y-111230000D03*
D15*
%TO.P,D6,2,A*%
%TO.N,Net-(D6-A)*%
X136135000Y-111230000D03*
%TD*%
D14*
%TO.P,D2,1,K*%
%TO.N,Net-(A1-D9)*%
X163875000Y-82010000D03*
D15*
%TO.P,D2,2,A*%
%TO.N,Net-(D2-A)*%
X166415000Y-82010000D03*
%TD*%
D14*
%TO.P,D1,1,K*%
%TO.N,Net-(A1-D9)*%
X134020000Y-82020000D03*
D15*
%TO.P,D1,2,A*%
%TO.N,Net-(D1-A)*%
X136560000Y-82020000D03*
%TD*%
D12*
%TO.P,R1,1*%
%TO.N,Net-(D1-A)*%
X138910000Y-87010000D03*
%TO.P,R1,2*%
%TO.N,Net-(A1-D2)*%
X131290000Y-87010000D03*
%TD*%
D15*
%TO.P,D5,2,A*%
%TO.N,Net-(D5-A)*%
X151135000Y-111230000D03*
D14*
%TO.P,D5,1,K*%
%TO.N,Net-(A1-D9)*%
X148595000Y-111230000D03*
%TD*%
D15*
%TO.P,D7,2,A*%
%TO.N,Net-(D7-A)*%
X166135000Y-111230000D03*
D14*
%TO.P,D7,1,K*%
%TO.N,Net-(A1-D9)*%
X163595000Y-111230000D03*
%TD*%
D12*
%TO.P,R7,1*%
%TO.N,Net-(D7-A)*%
X166890000Y-116190000D03*
%TO.P,R7,2*%
%TO.N,Net-(A1-D8)*%
X159270000Y-116190000D03*
%TD*%
%TO.P,R5,1*%
%TO.N,Net-(D5-A)*%
X154010000Y-117100000D03*
%TO.P,R5,2*%
%TO.N,Net-(A1-D6)*%
X146390000Y-117100000D03*
%TD*%
%TO.P,R4,1*%
%TO.N,Net-(D4-A)*%
X153500000Y-101310000D03*
%TO.P,R4,2*%
%TO.N,Net-(A1-D5)*%
X145880000Y-101310000D03*
%TD*%
%TO.P,R3,1*%
%TO.N,Net-(D3-A)*%
X153730000Y-87070000D03*
%TO.P,R3,2*%
%TO.N,Net-(A1-D4)*%
X146110000Y-87070000D03*
%TD*%
%TO.P,R2,1*%
%TO.N,Net-(D2-A)*%
X168880000Y-86990000D03*
%TO.P,R2,2*%
%TO.N,Net-(A1-D3)*%
X161260000Y-86990000D03*
%TD*%
D14*
%TO.P,D4,1,K*%
%TO.N,Net-(A1-D9)*%
X148595000Y-96230000D03*
D15*
%TO.P,D4,2,A*%
%TO.N,Net-(D4-A)*%
X151135000Y-96230000D03*
%TD*%
D14*
%TO.P,D3,1,K*%
%TO.N,Net-(A1-D9)*%
X148630000Y-81990000D03*
D15*
%TO.P,D3,2,A*%
%TO.N,Net-(D3-A)*%
X151170000Y-81990000D03*
%TD*%
D16*
%TO.P,A1,1,D1/TX*%
%TO.N,unconnected-(A1-D1{slash}TX-Pad1)*%
X130650000Y-90990000D03*
D17*
%TO.P,A1,2,D0/RX*%
%TO.N,unconnected-(A1-D0{slash}RX-Pad2)*%
X133190000Y-90990000D03*
%TO.P,A1,3,~{RESET}*%
%TO.N,unconnected-(A1-~{RESET}-Pad3)*%
X135730000Y-90990000D03*
%TO.P,A1,4,GND*%
%TO.N,Net-(J1-Pin_2)*%
X138270000Y-90990000D03*
%TO.P,A1,5,D2*%
%TO.N,Net-(A1-D2)*%
X140810000Y-90990000D03*
%TO.P,A1,6,D3*%
%TO.N,Net-(A1-D3)*%
X143350000Y-90990000D03*
%TO.P,A1,7,D4*%
%TO.N,Net-(A1-D4)*%
X145890000Y-90990000D03*
%TO.P,A1,8,D5*%
%TO.N,Net-(A1-D5)*%
X148430000Y-90990000D03*
%TO.P,A1,9,D6*%
%TO.N,Net-(A1-D6)*%
X150970000Y-90990000D03*
%TO.P,A1,10,D7*%
%TO.N,Net-(A1-D7)*%
X153510000Y-90990000D03*
%TO.P,A1,11,D8*%
%TO.N,Net-(A1-D8)*%
X156050000Y-90990000D03*
%TO.P,A1,12,D9*%
%TO.N,Net-(A1-D9)*%
X158590000Y-90990000D03*
%TO.P,A1,13,D10*%
%TO.N,unconnected-(A1-D10-Pad13)*%
X161130000Y-90990000D03*
%TO.P,A1,14,D11*%
%TO.N,unconnected-(A1-D11-Pad14)*%
X163670000Y-90990000D03*
%TO.P,A1,15,D12*%
%TO.N,unconnected-(A1-D12-Pad15)*%
X166210000Y-90990000D03*
%TO.P,A1,16,D13*%
%TO.N,unconnected-(A1-D13-Pad16)*%
X166210000Y-106230000D03*
%TO.P,A1,17,3V3*%
%TO.N,unconnected-(A1-3V3-Pad17)*%
X163670000Y-106230000D03*
%TO.P,A1,18,AREF*%
%TO.N,unconnected-(A1-AREF-Pad18)*%
X161130000Y-106230000D03*
%TO.P,A1,19,A0*%
%TO.N,unconnected-(A1-A0-Pad19)*%
X158590000Y-106230000D03*
%TO.P,A1,20,A1*%
%TO.N,unconnected-(A1-A1-Pad20)*%
X156050000Y-106230000D03*
%TO.P,A1,21,A2*%
%TO.N,unconnected-(A1-A2-Pad21)*%
X153510000Y-106230000D03*
%TO.P,A1,22,A3*%
%TO.N,unconnected-(A1-A3-Pad22)*%
X150970000Y-106230000D03*
%TO.P,A1,23,A4*%
%TO.N,unconnected-(A1-A4-Pad23)*%
X148430000Y-106230000D03*
%TO.P,A1,24,A5*%
%TO.N,unconnected-(A1-A5-Pad24)*%
X145890000Y-106230000D03*
%TO.P,A1,25,A6*%
%TO.N,unconnected-(A1-A6-Pad25)*%
X143350000Y-106230000D03*
%TO.P,A1,26,A7*%
%TO.N,unconnected-(A1-A7-Pad26)*%
X140810000Y-106230000D03*
%TO.P,A1,27,+5V*%
%TO.N,Net-(A1-+5V)*%
X138270000Y-106230000D03*
%TO.P,A1,28,~{RESET}*%
%TO.N,unconnected-(A1-~{RESET}-Pad28)*%
X135730000Y-106230000D03*
%TO.P,A1,29,GND*%
%TO.N,unconnected-(A1-GND-Pad29)*%
X133190000Y-106230000D03*
%TO.P,A1,30,VIN*%
%TO.N,unconnected-(A1-VIN-Pad30)*%
X130650000Y-106230000D03*
%TD*%
D18*
%TO.N,Net-(A1-D9)*%
X128520000Y-97540000D02*
X127240000Y-96260000D01*
X129050000Y-97540000D02*
X128520000Y-97540000D01*
X135550000Y-97540000D02*
X129050000Y-97540000D01*
D19*
%TO.N,Net-(D6-A)*%
X136675000Y-111770000D02*
X136135000Y-111230000D01*
D18*
%TO.N,Net-(A1-D9)*%
X147270000Y-80630000D02*
X148630000Y-81990000D01*
X135410000Y-80630000D02*
X147270000Y-80630000D01*
X134020000Y-82020000D02*
X135410000Y-80630000D01*
X162504000Y-80639000D02*
X163875000Y-82010000D01*
X149981000Y-80639000D02*
X162504000Y-80639000D01*
X148630000Y-81990000D02*
X149981000Y-80639000D01*
X171920000Y-81780000D02*
X171920000Y-91960000D01*
X165226000Y-80659000D02*
X170799000Y-80659000D01*
X170799000Y-80659000D02*
X171920000Y-81780000D01*
X163875000Y-82010000D02*
X165226000Y-80659000D01*
D19*
%TO.N,Net-(D2-A)*%
X166415000Y-82010000D02*
X168880000Y-84475000D01*
X168880000Y-84475000D02*
X168880000Y-86990000D01*
D18*
%TO.N,Net-(A1-D9)*%
X158590000Y-86235000D02*
X162795000Y-82030000D01*
%TO.N,Net-(D7-A)*%
X166890000Y-111985000D02*
X166135000Y-111230000D01*
X166890000Y-116190000D02*
X166890000Y-111985000D01*
%TO.N,Net-(A1-D9)*%
X162795000Y-82030000D02*
X163875000Y-82030000D01*
%TO.N,Net-(D3-A)*%
X153730000Y-84550000D02*
X153730000Y-87070000D01*
X151170000Y-81990000D02*
X153730000Y-84550000D01*
D19*
%TO.N,Net-(D1-A)*%
X138910000Y-84370000D02*
X138910000Y-87010000D01*
X136560000Y-82020000D02*
X138910000Y-84370000D01*
D18*
%TO.N,Net-(A1-D9)*%
X127240000Y-88800000D02*
X134020000Y-82020000D01*
X127240000Y-96260000D02*
X127240000Y-88800000D01*
D19*
%TO.N,Net-(A1-D5)*%
X145880000Y-93540000D02*
X148430000Y-90990000D01*
X145880000Y-101310000D02*
X145880000Y-93540000D01*
D18*
%TO.N,Net-(A1-D9)*%
X170110000Y-93770000D02*
X171920000Y-91960000D01*
X151055000Y-93770000D02*
X170110000Y-93770000D01*
X148595000Y-96230000D02*
X151055000Y-93770000D01*
X171920000Y-106800000D02*
X171920000Y-91960000D01*
D19*
%TO.N,Net-(D4-A)*%
X153500000Y-98595000D02*
X151135000Y-96230000D01*
X153500000Y-101310000D02*
X153500000Y-98595000D01*
%TO.N,Net-(A1-D4)*%
X146110000Y-90770000D02*
X145890000Y-90990000D01*
X146110000Y-87070000D02*
X146110000Y-90770000D01*
%TO.N,Net-(A1-D2)*%
X138800000Y-88980000D02*
X140810000Y-90990000D01*
X131690000Y-88980000D02*
X138800000Y-88980000D01*
X131290000Y-88580000D02*
X131690000Y-88980000D01*
X131290000Y-87010000D02*
X131290000Y-88580000D01*
D18*
%TO.N,Net-(A1-D9)*%
X166145000Y-108680000D02*
X170040000Y-108680000D01*
X170040000Y-108680000D02*
X171920000Y-106800000D01*
X163595000Y-111230000D02*
X166145000Y-108680000D01*
X158590000Y-86235000D02*
X158590000Y-90990000D01*
X162244000Y-109879000D02*
X163595000Y-111230000D01*
X149946000Y-109879000D02*
X162244000Y-109879000D01*
X148595000Y-111230000D02*
X149946000Y-109879000D01*
X134946000Y-109879000D02*
X147244000Y-109879000D01*
X133595000Y-111230000D02*
X134946000Y-109879000D01*
X147244000Y-109879000D02*
X148595000Y-111230000D01*
%TO.N,Net-(D5-A)*%
X154010000Y-114105000D02*
X151135000Y-111230000D01*
X154010000Y-117100000D02*
X154010000Y-114105000D01*
D19*
%TO.N,Net-(D6-A)*%
X143440000Y-111770000D02*
X136675000Y-111770000D01*
%TD*%
M02*
